<?xml version="1.0" encoding="UTF-8"?>
<svg version="1.1" xmlns="http://www.w3.org/2000/svg" width="512" height="512">
<path d="M0 0 C1.66806344 1.50023998 3.32743964 3.01021435 4.9765625 4.53125 C7.0889424 6.469413 9.24998072 8.32742021 11.4375 10.1796875 C15.44596056 13.68509424 18.82811962 17.54774012 22.25 21.6171875 C23.06210937 22.54144531 23.87421875 23.46570313 24.7109375 24.41796875 C51.87936152 55.48671195 69.11137107 93.30613812 77.25 133.6171875 C77.41516113 134.39884277 77.58032227 135.18049805 77.75048828 135.98583984 C83.11430758 162.46103064 82.89414642 194.21747232 77.25 220.6171875 C77.04600586 221.60203125 76.84201172 222.586875 76.63183594 223.6015625 C63.60566822 285.1867048 28.50889737 337.82372724 -24.16796875 372.5703125 C-64.25222215 398.23869573 -64.25222215 398.23869573 -81.75 395.6171875 C-84.66543513 394.40242286 -86.11313136 393.56733794 -87.85804749 390.96408081 C-89.10258457 387.68947178 -89.00987451 384.81772363 -89.02124023 381.31689453 C-89.02908035 380.22321312 -89.02908035 380.22321312 -89.03707886 379.10743713 C-89.0473076 377.52567822 -89.0530973 375.94388576 -89.05496025 374.36209488 C-89.05863641 371.8458025 -89.07540273 369.32989995 -89.09571838 366.81369019 C-89.15097103 359.65972209 -89.18160756 352.50569426 -89.20629883 345.3515625 C-89.22232873 340.97014741 -89.25271825 336.58900281 -89.29106331 332.20772934 C-89.30259248 330.55026028 -89.30864258 328.89274246 -89.30874443 327.23523331 C-89.30982897 314.26747622 -90.02314443 301.71681926 -96.1875 289.9921875 C-96.76371094 288.86554688 -97.33992188 287.73890625 -97.93359375 286.578125 C-99.63784816 283.80000705 -101.42997406 281.87092698 -103.75 279.6171875 C-103.75 278.9571875 -103.75 278.2971875 -103.75 277.6171875 C-103.1422876 277.52219971 -102.5345752 277.42721191 -101.90844727 277.3293457 C-74.71507389 273.01354707 -48.88787882 266.75506632 -28.75 246.6171875 C-28.04101562 245.90820312 -27.33203125 245.19921875 -26.6015625 244.46875 C-4.62332665 221.14318935 -1.9519079 187.25342989 -2.61816406 156.86474609 C-3.23336868 141.71020557 -9.3789846 120.59936409 -20.6328125 109.8125 C-21.20773437 109.29429687 -21.78265625 108.77609375 -22.375 108.2421875 C-23.85546875 106.65234375 -23.85546875 106.65234375 -24.75 104.6171875 C-24.36079934 99.77831959 -23.06128419 95.27712305 -21.75 90.6171875 C-18.80344155 75.4191492 -20.86556499 57.525843 -27.75 43.6171875 C-48.98084596 42.36831421 -69.70529577 55.25405134 -86.75 66.6171875 C-93.87938705 66.11300985 -100.88525314 64.47701381 -107.88476562 63.078125 C-108.76712891 62.90539062 -109.64949219 62.73265625 -110.55859375 62.5546875 C-111.73119751 62.32072266 -111.73119751 62.32072266 -112.92749023 62.08203125 C-119.76580896 60.95581735 -126.53156412 60.45493109 -133.45703125 60.4140625 C-134.25643631 60.40713882 -135.05584137 60.40021515 -135.87947083 60.39308167 C-138.44053117 60.37591565 -141.00138486 60.36949654 -143.5625 60.3671875 C-144.87199615 60.36517838 -144.87199615 60.36517838 -146.20794678 60.36312866 C-158.94220697 60.36737371 -171.28185667 60.79456908 -183.75 63.6171875 C-185.03519531 63.90335937 -186.32039062 64.18953125 -187.64453125 64.484375 C-189.80958566 64.98565551 -191.97009323 65.5078908 -194.12109375 66.06640625 C-198.52358001 66.98876964 -200.71755443 67.20021559 -204.73828125 64.9296875 C-205.85182936 64.166785 -206.95960209 63.39540714 -208.0625 62.6171875 C-224.37621915 51.67036676 -241.78249063 43.6171875 -261.75 43.6171875 C-262.44533154 46.61246182 -263.10413843 49.61099546 -263.75 52.6171875 C-264.01425781 53.7928125 -264.27851563 54.9684375 -264.55078125 56.1796875 C-267.57942462 70.28777582 -267.72196853 83.38420986 -264.40625 97.4453125 C-263.79943392 100.37825688 -263.35551011 102.65358218 -263.75 105.6171875 C-265.21875 107.73046875 -265.21875 107.73046875 -267.25 109.9296875 C-281.01190764 126.35125459 -284.98306323 146.46692247 -285 167.3671875 C-285.00067474 168.10983856 -285.00134949 168.85248962 -285.00204468 169.61764526 C-284.98576794 180.8782568 -284.50902859 191.65894893 -281.75 202.6171875 C-281.50056641 203.61709717 -281.50056641 203.61709717 -281.24609375 204.63720703 C-275.6493318 226.35575271 -264.13188301 246.95408601 -244.60253906 258.93457031 C-225.87971075 269.83316898 -206.18034315 275.15675775 -184.75 277.6171875 C-185.34903356 280.89382889 -186.43296859 282.70831469 -188.5625 285.2421875 C-192.51786371 290.36145011 -195.32270368 296.04518229 -196.09765625 302.5234375 C-196.54438466 305.75029126 -197.01932392 307.84275316 -198.75 310.6171875 C-209.78247041 317.0854633 -224.71894382 317.35850492 -237.01171875 314.98828125 C-250.78317384 310.6073476 -258.85237159 300.45734266 -266.58203125 288.87109375 C-273.35557558 278.82545351 -281.15121537 272.48344904 -292.75 268.6171875 C-294.76906808 268.52301972 -296.79124313 268.48727558 -298.8125 268.4921875 C-299.87597656 268.48960937 -300.93945312 268.48703125 -302.03515625 268.484375 C-304.71704384 268.43280295 -304.71704384 268.43280295 -306.75 269.6171875 C-306.71233596 271.95736888 -306.71233596 271.95736888 -305.75 274.6171875 C-303.75172207 276.38952211 -301.86795556 277.86208892 -299.6875 279.3671875 C-287.15362701 288.56905529 -280.03947477 300.19190563 -273.75073242 314.20751953 C-267.41177817 328.28343112 -259.02734643 337.12846737 -244.375 342.9296875 C-230.60307387 347.44252205 -217.62059684 346.51349032 -203.48510742 345.09301758 C-202.59522629 345.00369461 -201.70534515 344.91437164 -200.78849792 344.82234192 C-200.11579361 344.75464096 -199.44308929 344.68694 -198.75 344.6171875 C-198.67567346 350.63115759 -198.62131412 356.64485846 -198.58520508 362.65917969 C-198.57014712 364.70382344 -198.54969643 366.74843505 -198.52368164 368.79296875 C-198.48716689 371.73706002 -198.47024349 374.68072307 -198.45703125 377.625 C-198.44154739 378.5346048 -198.42606354 379.44420959 -198.41011047 380.38137817 C-198.40875875 385.51427182 -198.72760026 389.2529667 -201.75 393.6171875 C-206.14457027 396.78579239 -211.59030133 396.18881836 -216.75 395.6171875 C-220.73247678 394.53243668 -224.42190096 392.98375183 -228.1875 391.3046875 C-229.22592041 390.85464355 -230.26434082 390.40459961 -231.33422852 389.94091797 C-253.30100221 380.22823223 -272.82639385 367.56273802 -290.75 351.6171875 C-291.50506836 350.95468994 -291.50506836 350.95468994 -292.27539062 350.27880859 C-315.45249731 329.90586404 -333.98843512 304.73354116 -346.75 276.6171875 C-347.08483398 275.88032715 -347.41966797 275.1434668 -347.76464844 274.38427734 C-354.65969057 259.01772101 -359.83088083 243.43006021 -363.5 226.9921875 C-363.79813599 225.67105957 -363.79813599 225.67105957 -364.10229492 224.32324219 C-367.38429628 208.86562069 -368.15951781 193.49695317 -368.125 177.7421875 C-368.12418427 176.33253723 -368.12418427 176.33253723 -368.12335205 174.89440918 C-367.95902234 112.86717393 -343.57735742 55.37691011 -299.75 11.6171875 C-298.8734375 10.70582031 -297.996875 9.79445312 -297.09375 8.85546875 C-267.45399759 -21.81137799 -226.96589624 -40.4724087 -185.75 -49.3828125 C-184.945625 -49.56360352 -184.14125 -49.74439453 -183.3125 -49.93066406 C-119.56983396 -63.65607546 -48.63435982 -42.14056745 0 0 Z " fill="#0C7600" transform="translate(399.75,84.3828125)"/>
</svg>
